<?xml version="1.0" encoding="UTF-8"?>
<svg xmlns="http://www.w3.org/2000/svg" xmlns:xlink="http://www.w3.org/1999/xlink" viewBox="0 0 48 48" width="48px" height="48px">
<g id="surface28023107">
<path style=" stroke:none;fill-rule:nonzero;fill:rgb(34.509805%,18.82353%,87.843138%);fill-opacity:1;" d="M 42 24 C 42 33.941406 33.941406 42 24 42 C 14.058594 42 6 33.941406 6 24 C 6 14.058594 14.058594 6 24 6 C 33.941406 6 42 14.058594 42 24 Z M 42 24 "/>
<path style=" stroke:none;fill-rule:nonzero;fill:rgb(0%,0%,0%);fill-opacity:1;" d="M 13.398438 39.800781 L 16.800781 34.699219 L 15.300781 35 L 10.699219 35.800781 L 13.300781 32 L 18.699219 23.800781 L 17.300781 24 L 11.398438 25 L 15.5 20.699219 L 29.601562 5.800781 C 30.300781 6 31 6.300781 31.601562 6.601562 L 17 22 L 23 21 L 15 33 L 21 32 L 15.199219 40.800781 C 14.601562 40.5 14 40.199219 13.398438 39.800781 Z M 39 12.398438 L 33.300781 14.101562 L 31.199219 14.699219 L 34.800781 8.5 C 34.300781 8.101562 33.699219 7.800781 33.101562 7.398438 L 27 18 L 33.898438 16 L 25 28 L 31 27 L 16.5 41.5 C 17.199219 41.800781 17.898438 42 18.601562 42.199219 L 32.398438 28.398438 L 36.800781 24 L 30.699219 25 L 29.601562 25.199219 L 35.601562 17.199219 Z M 39 12.398438 "/>
<path style=" stroke:none;fill-rule:nonzero;fill:rgb(100%,75.686276%,2.745098%);fill-opacity:1;" d="M 24 7 C 33.351562 7 41 14.648438 41 24 C 41 33.351562 33.351562 41 24 41 C 14.648438 41 7 33.351562 7 24 C 7 14.648438 14.648438 7 24 7 M 24 4 C 12.945312 4 4 12.945312 4 24 C 4 35.054688 12.945312 44 24 44 C 35.054688 44 44 35.054688 44 24 C 44 12.945312 35.054688 4 24 4 Z M 37 1 L 17 22 L 23 21 L 15 33 L 21 32 L 11 47 L 31 27 L 25 28 L 33.898438 16 L 27 18 Z M 37 1 "/>
<path style=" stroke:none;fill-rule:nonzero;fill:rgb(20%,20%,20%);fill-opacity:1;" d="M 30.167969 8.171875 L 30.171875 8.171875 L 32.375 5.855469 C 31.726562 5.554688 31.058594 5.285156 30.375 5.054688 L 28.722656 6.789062 L 28.042969 7.503906 C 28.769531 7.683594 29.480469 7.902344 30.167969 8.171875 Z M 14.578125 41.640625 L 16.257812 39.121094 C 15.660156 38.816406 15.078125 38.488281 14.527344 38.113281 L 12.914062 40.53125 L 12.863281 40.609375 C 13.414062 40.984375 13.988281 41.324219 14.578125 41.640625 Z M 20.257812 40.574219 C 19.511719 40.40625 18.785156 40.183594 18.082031 39.921875 L 15.78125 42.21875 C 16.441406 42.519531 17.117188 42.789062 17.816406 43.015625 Z M 33.738281 6.539062 L 32.222656 9.125 C 32.808594 9.449219 33.367188 9.816406 33.90625 10.203125 L 33.945312 10.144531 L 35.433594 7.605469 C 34.886719 7.222656 34.324219 6.867188 33.738281 6.539062 Z M 33.738281 6.539062 "/>
</g>
</svg>
